<?xml version="1.0" encoding="utf-8"?>
<!-- Svg Vector Icons : http://www.onlinewebfonts.com/icon -->
<!DOCTYPE svg PUBLIC "-//W3C//DTD SVG 1.1//EN" "http://www.w3.org/Graphics/SVG/1.1/DTD/svg11.dtd">
<svg version="1.1" xmlns="http://www.w3.org/2000/svg" xmlns:xlink="http://www.w3.org/1999/xlink" x="0px" y="0px" viewBox="0 0 256 256" enable-background="new 0 0 256 256" xml:space="preserve">
<metadata> Svg Vector Icons : http://www.onlinewebfonts.com/icon </metadata>
<g><g><g><path fill="#000000" d="M122.5,32.5c-9.7,1.4-17.5,3.7-25.6,7.7c-17.7,8.6-28.8,21.4-31.9,36.9l-0.8,4l-4.4,0.7c-12.5,2-23.8,7.9-32.6,16.7c-8.4,8.5-13.7,18.3-16.3,30.4c-1.2,5.3-1.2,17.1,0,22.5c5.1,23.9,22.6,41.5,46.4,46.7c3.9,0.8,6.5,1,20.3,1.2l15.8,0.2v-5.1v-5.1l-16.5-0.2c-15.2-0.2-16.8-0.3-20.1-1.2C36.3,182.3,22.4,166,20,145.1c-0.7-5.7,0-12.5,1.7-18.4c5.8-19.9,23.4-34.2,44-35.6c4.8-0.3,6.6-1,7.5-2.6c0.3-0.6,0.7-3,0.9-5.3c0.7-8.5,4.5-16.3,11.3-23c4.6-4.6,8.5-7.5,14.8-10.6c8.2-4.2,17-6.6,27-7.6c14.1-1.4,28.5,2.4,40.6,10.8c4.8,3.3,13.1,11.7,16.5,16.8c8.2,12.1,12,23.9,12.6,39.4c0.2,5,0.5,8.5,0.9,9.1c0.8,1.5,3,2.4,5.4,2.4c2.9,0,8.7,1.2,11.5,2.4c7.4,3.1,14.3,9.3,17.7,15.9c5.2,10,5.4,21.6,0.4,31.4c-3.5,6.9-8.6,12-15.3,15.4c-6.3,3.1-7.3,3.3-21.9,3.6l-13.2,0.3v4.8v4.8l12.9,0c12.4,0,13.1-0.1,17.5-1.2c16-4.2,28.2-16.5,32.2-32.5c1.4-5.7,1.4-15.8,0-21.1c-3.5-13.1-11.7-23.2-23.3-29c-3.5-1.8-10.6-4.1-12.6-4.1c-1.8,0-2.1-0.6-2.6-6.7c-0.9-11.1-3.3-20-7.7-29.3c-10.3-21.7-29.6-37.3-52.3-42C140.7,32,128.6,31.6,122.5,32.5z"/><path fill="#000000" d="M124.8,130.5c-5.6,1-7.1,1.4-10,2.5c-10,4.2-17.7,13.3-20.3,23.9c-1,4.1-1,11.8,0,15.9c5.5,22.5,31.5,33.5,51.1,21.6l3-1.8l15.2,15.1c8.4,8.4,15.7,15.4,16.3,15.7c1.9,1,3.8,0.6,5.5-1.1c1.7-1.7,2-3.6,1.1-5.5c-0.3-0.6-7.3-7.9-15.7-16.3l-15.1-15.2l1.8-3c7-11.5,6.4-26.5-1.6-37.5c-4.7-6.7-12.1-11.7-19.8-13.5C133.1,130.7,126.7,130.2,124.8,130.5z M134.2,141.1c6.2,1.6,12.4,6.5,15.3,12.1c5.2,9.7,3.5,21.3-4.2,29c-9.6,9.6-25,9.6-34.6,0c-7.7-7.7-9.4-19.3-4.2-29c2.9-5.5,9.1-10.4,15.1-12C124.9,140.2,130.9,140.2,134.2,141.1z"/></g></g></g>
</svg>